HIERARCHY
ROOT Hips
{
  OFFSET -51.6248 92.5761 197.566
  CHANNELS 6 Xposition Yposition Zposition Zrotation Xrotation Yrotation
  JOINT Spine
  {
    OFFSET 0 8 0
    CHANNELS 6 Xposition Yposition Zposition Zrotation Xrotation Yrotation
    JOINT Spine1
    {
      OFFSET 0 8 0
      CHANNELS 6 Xposition Yposition Zposition Zrotation Xrotation Yrotation
      JOINT Spine2
      {
        OFFSET 0 8 0
        CHANNELS 6 Xposition Yposition Zposition Zrotation Xrotation Yrotation
        JOINT Spine3
        {
          OFFSET 0 8 0
          CHANNELS 6 Xposition Yposition Zposition Zrotation Xrotation Yrotation
          JOINT Neck
          {
            OFFSET 0 17 0
            CHANNELS 6 Xposition Yposition Zposition Zrotation Xrotation Yrotation
            JOINT Head
            {
              OFFSET 0 10.8 0
              CHANNELS 6 Xposition Yposition Zposition Zrotation Xrotation Yrotation
              End Site
              {
                OFFSET 0 20.25 0
              }
            }
          }
          JOINT LeftShoulder
          {
            OFFSET 5 17 0
            CHANNELS 6 Xposition Yposition Zposition Zrotation Xrotation Yrotation
            JOINT LeftShoulder2
            {
              OFFSET 6.45 0 0
              CHANNELS 6 Xposition Yposition Zposition Zrotation Xrotation Yrotation
              JOINT LeftArm
              {
                OFFSET 6.45 0 0
                CHANNELS 6 Xposition Yposition Zposition Zrotation Xrotation Yrotation
                JOINT LeftForeArm
                {
                  OFFSET 0 -32.4 -2
                  CHANNELS 6 Xposition Yposition Zposition Zrotation Xrotation Yrotation
                  JOINT LeftHand
                  {
                    OFFSET 0 -25.65 2
                    CHANNELS 6 Xposition Yposition Zposition Zrotation Xrotation Yrotation
                    JOINT LeftHandThumb1
                    {
                      OFFSET -0.5 -1.5 2.65
                      CHANNELS 6 Xposition Yposition Zposition Zrotation Xrotation Yrotation
                      JOINT LeftHandThumb2
                      {
                        OFFSET 0 -3.8 3.7
                        CHANNELS 6 Xposition Yposition Zposition Zrotation Xrotation Yrotation
                        JOINT LeftHandThumb3
                        {
                          OFFSET 0 -3 2.7
                          CHANNELS 6 Xposition Yposition Zposition Zrotation Xrotation Yrotation
                          End Site
                          {
                            OFFSET 0 -2.3 1.8
                          }
                        }
                      }
                    }
                    JOINT LeftHandIndex
                    {
                      OFFSET 0 -1.9 1.6
                      CHANNELS 6 Xposition Yposition Zposition Zrotation Xrotation Yrotation
                      JOINT LeftHandIndex1
                      {
                        OFFSET 0 -8.3 1.9
                        CHANNELS 6 Xposition Yposition Zposition Zrotation Xrotation Yrotation
                        JOINT LeftHandIndex2
                        {
                          OFFSET 0 -4.5 0
                          CHANNELS 6 Xposition Yposition Zposition Zrotation Xrotation Yrotation
                          JOINT LeftHandIndex3
                          {
                            OFFSET 0 -3.4 0
                            CHANNELS 6 Xposition Yposition Zposition Zrotation Xrotation Yrotation
                            End Site
                            {
                              OFFSET 0 -2.6 0
                            }
                          }
                        }
                      }
                    }
                    JOINT LeftHandMiddle
                    {
                      OFFSET -0.25 -2.2 0.4
                      CHANNELS 6 Xposition Yposition Zposition Zrotation Xrotation Yrotation
                      JOINT LeftHandMiddle1
                      {
                        OFFSET 0 -8.3 1
                        CHANNELS 6 Xposition Yposition Zposition Zrotation Xrotation Yrotation
                        JOINT LeftHandMiddle2
                        {
                          OFFSET 0 -4.65 0
                          CHANNELS 6 Xposition Yposition Zposition Zrotation Xrotation Yrotation
                          JOINT LeftHandMiddle3
                          {
                            OFFSET 0 -3.3 0
                            CHANNELS 6 Xposition Yposition Zposition Zrotation Xrotation Yrotation
                            End Site
                            {
                              OFFSET 0 -2.7 0
                            }
                          }
                        }
                      }
                    }
                    JOINT LeftHandRing
                    {
                      OFFSET -0.5 -2.15 -0.8
                      CHANNELS 6 Xposition Yposition Zposition Zrotation Xrotation Yrotation
                      JOINT LeftHandRing1
                      {
                        OFFSET 0 -7.75 -0.2
                        CHANNELS 6 Xposition Yposition Zposition Zrotation Xrotation Yrotation
                        JOINT LeftHandRing2
                        {
                          OFFSET 0 -3.8 0
                          CHANNELS 6 Xposition Yposition Zposition Zrotation Xrotation Yrotation
                          JOINT LeftHandRing3
                          {
                            OFFSET 0 -3.4 0
                            CHANNELS 6 Xposition Yposition Zposition Zrotation Xrotation Yrotation
                            End Site
                            {
                              OFFSET 0 -2.6 0
                            }
                          }
                        }
                      }
                    }
                    JOINT LeftHandPinky
                    {
                      OFFSET -0.75 -1.75 -1.85
                      CHANNELS 6 Xposition Yposition Zposition Zrotation Xrotation Yrotation
                      JOINT LeftHandPinky1
                      {
                        OFFSET 0 -7.15 -1
                        CHANNELS 6 Xposition Yposition Zposition Zrotation Xrotation Yrotation
                        JOINT LeftHandPinky2
                        {
                          OFFSET 0 -3 0
                          CHANNELS 6 Xposition Yposition Zposition Zrotation Xrotation Yrotation
                          JOINT LeftHandPinky3
                          {
                            OFFSET 0 -2.35 0
                            CHANNELS 6 Xposition Yposition Zposition Zrotation Xrotation Yrotation
                            End Site
                            {
                              OFFSET 0 -2.1 0
                            }
                          }
                        }
                      }
                    }
                  }
                }
              }
            }
          }
          JOINT RightShoulder
          {
            OFFSET -5 17 0
            CHANNELS 6 Xposition Yposition Zposition Zrotation Xrotation Yrotation
            JOINT RightShoulder2
            {
              OFFSET -6.45 0 0
              CHANNELS 6 Xposition Yposition Zposition Zrotation Xrotation Yrotation
              JOINT RightArm
              {
                OFFSET -6.45 0 0
                CHANNELS 6 Xposition Yposition Zposition Zrotation Xrotation Yrotation
                JOINT RightForeArm
                {
                  OFFSET 0 -32.4 -2
                  CHANNELS 6 Xposition Yposition Zposition Zrotation Xrotation Yrotation
                  JOINT RightHand
                  {
                    OFFSET 0 -25.65 2
                    CHANNELS 6 Xposition Yposition Zposition Zrotation Xrotation Yrotation
                    JOINT RightHandThumb1
                    {
                      OFFSET 0.5 -1.5 2.65
                      CHANNELS 6 Xposition Yposition Zposition Zrotation Xrotation Yrotation
                      JOINT RightHandThumb2
                      {
                        OFFSET 0 -3.8 3.7
                        CHANNELS 6 Xposition Yposition Zposition Zrotation Xrotation Yrotation
                        JOINT RightHandThumb3
                        {
                          OFFSET 0 -3 2.7
                          CHANNELS 6 Xposition Yposition Zposition Zrotation Xrotation Yrotation
                          End Site
                          {
                            OFFSET 0 -2.3 1.8
                          }
                        }
                      }
                    }
                    JOINT RightHandIndex
                    {
                      OFFSET 0 -1.9 1.6
                      CHANNELS 6 Xposition Yposition Zposition Zrotation Xrotation Yrotation
                      JOINT RightHandIndex1
                      {
                        OFFSET 0 -8.3 1.9
                        CHANNELS 6 Xposition Yposition Zposition Zrotation Xrotation Yrotation
                        JOINT RightHandIndex2
                        {
                          OFFSET 0 -4.5 0
                          CHANNELS 6 Xposition Yposition Zposition Zrotation Xrotation Yrotation
                          JOINT RightHandIndex3
                          {
                            OFFSET 0 -3.4 0
                            CHANNELS 6 Xposition Yposition Zposition Zrotation Xrotation Yrotation
                            End Site
                            {
                              OFFSET 0 -2.6 0
                            }
                          }
                        }
                      }
                    }
                    JOINT RightHandMiddle
                    {
                      OFFSET 0.25 -2.2 0.4
                      CHANNELS 6 Xposition Yposition Zposition Zrotation Xrotation Yrotation
                      JOINT RightHandMiddle1
                      {
                        OFFSET 0 -8.3 1
                        CHANNELS 6 Xposition Yposition Zposition Zrotation Xrotation Yrotation
                        JOINT RightHandMiddle2
                        {
                          OFFSET 0 -4.65 0
                          CHANNELS 6 Xposition Yposition Zposition Zrotation Xrotation Yrotation
                          JOINT RightHandMiddle3
                          {
                            OFFSET 0 -3.3 0
                            CHANNELS 6 Xposition Yposition Zposition Zrotation Xrotation Yrotation
                            End Site
                            {
                              OFFSET 0 -2.7 0
                            }
                          }
                        }
                      }
                    }
                    JOINT RightHandRing
                    {
                      OFFSET 0.5 -2.15 -0.8
                      CHANNELS 6 Xposition Yposition Zposition Zrotation Xrotation Yrotation
                      JOINT RightHandRing1
                      {
                        OFFSET 0 -7.75 -0.2
                        CHANNELS 6 Xposition Yposition Zposition Zrotation Xrotation Yrotation
                        JOINT RightHandRing2
                        {
                          OFFSET 0 -3.8 0
                          CHANNELS 6 Xposition Yposition Zposition Zrotation Xrotation Yrotation
                          JOINT RightHandRing3
                          {
                            OFFSET 0 -3.4 0
                            CHANNELS 6 Xposition Yposition Zposition Zrotation Xrotation Yrotation
                            End Site
                            {
                              OFFSET 0 -2.6 0
                            }
                          }
                        }
                      }
                    }
                    JOINT RightHandPinky
                    {
                      OFFSET 0.75 -1.75 -1.85
                      CHANNELS 6 Xposition Yposition Zposition Zrotation Xrotation Yrotation
                      JOINT RightHandPinky1
                      {
                        OFFSET 0 -7.15 -1
                        CHANNELS 6 Xposition Yposition Zposition Zrotation Xrotation Yrotation
                        JOINT RightHandPinky2
                        {
                          OFFSET 0 -3 0
                          CHANNELS 6 Xposition Yposition Zposition Zrotation Xrotation Yrotation
                          JOINT RightHandPinky3
                          {
                            OFFSET 0 -2.35 0
                            CHANNELS 6 Xposition Yposition Zposition Zrotation Xrotation Yrotation
                            End Site
                            {
                              OFFSET 0 -2.1 0
                            }
                          }
                        }
                      }
                    }
                  }
                }
              }
            }
          }
        }
      }
    }
  }
  JOINT LeftUpLeg
  {
    OFFSET 8 0 0
    CHANNELS 6 Xposition Yposition Zposition Zrotation Xrotation Yrotation
    JOINT LeftLeg
    {
      OFFSET 0 -45 -1
      CHANNELS 6 Xposition Yposition Zposition Zrotation Xrotation Yrotation
      JOINT LeftFoot
      {
        OFFSET 0 -41 -2
        CHANNELS 6 Xposition Yposition Zposition Zrotation Xrotation Yrotation
        JOINT LeftToeBase
        {
          OFFSET 0 -7.5 12.5
          CHANNELS 6 Xposition Yposition Zposition Zrotation Xrotation Yrotation
          JOINT LeftFootToe
          {
            OFFSET 0 0 4
            CHANNELS 6 Xposition Yposition Zposition Zrotation Xrotation Yrotation
            End Site
            {
              OFFSET 0 0 0
            }
          }
        }
      }
    }
  }
  JOINT RightUpLeg
  {
    OFFSET -8 0 0
    CHANNELS 6 Xposition Yposition Zposition Zrotation Xrotation Yrotation
    JOINT RightLeg
    {
      OFFSET 0 -45 -1
      CHANNELS 6 Xposition Yposition Zposition Zrotation Xrotation Yrotation
      JOINT RightFoot
      {
        OFFSET 0 -41 -2
        CHANNELS 6 Xposition Yposition Zposition Zrotation Xrotation Yrotation
        JOINT RightToeBase
        {
          OFFSET 0 -7.5 12.5
          CHANNELS 6 Xposition Yposition Zposition Zrotation Xrotation Yrotation
          JOINT RightFootToe
          {
            OFFSET 0 0 4
            CHANNELS 6 Xposition Yposition Zposition Zrotation Xrotation Yrotation
            End Site
            {
              OFFSET 0 0 0
            }
          }
        }
      }
    }
  }
}
MOTION
Frames:	3
Frame Time:	0.0111111
0 93.5 0 0 0 -0 0 8 0 0 0 -0 0 8 0 0 0 -0 0 8 0 0 0 -0 0 8 0 0 0 -0 0 17 0 0 0 -0 0 10.8 0 0 0 -0 5 17 0 0 0 -0 6.45 0 0 0 0 -0 6.45 0 0 90.0002 -2.95078e-16 -2.03706e-21 0 -32.4 -2 -2.39185e-39 5.45195e-16 -1.85533e-21 0 -25.65 2 1.69916e-38 0 -1.34702e-36 -0.5 -1.5 2.65 1.40913e-37 1.30643e-15 -4.56152e-21 0 -3.8 3.7 -0.00614111 2.65755e-08 -0.00184264 2.84217e-14 -3 2.7 -0.0020629 2.10105e-08 -0.00338157 -2.84217e-14 -1.9 1.6 1.69916e-38 0 -1.34702e-36 2.84217e-14 -8.3 1.9 1.69916e-38 0 -1.34702e-36 0 -4.5 0 -9.15334e-07 -0.0121089 -0.0059429 0 -3.4 0 9.14031e-08 -0.000223592 -0.0184648 -0.25 -2.2 0.4 7.20619e-38 -7.95139e-16 5.7893e-21 2.84217e-14 -8.3 1 1.80443e-38 0 3.36754e-37 0 -4.65 0 2.51937e-07 0.00137903 -0.0109715 2.84217e-14 -3.3 -4.44089e-16 -7.33464e-07 0.00794454 0.00518345 -0.5 -2.15 -0.8 2.25055e-38 1.98785e-16 -7.03764e-22 0 -7.75 -0.2 3.60099e-38 -1.76556e-31 -0 2.84217e-14 -3.8 0 -2.7126e-05 0.0199077 -0.00478482 -2.84217e-14 -3.4 -1.11022e-16 6.70397e-07 0.00350235 -0.00793736 -0.75 -1.75 -1.85 4.34709e-38 -1.04818e-26 -6.06578e-21 0 -7.15 -1 4.34709e-38 0 -0 0 -3 0 4.34709e-38 0 -0 0 -2.35 0 4.34709e-38 0 -0 -5 17 0 0 0 -0 -6.45 0 0 0 0 -0 -6.45 0 0 -90.0002 -2.95058e-16 2.02033e-21 0 -32.4 -2 1.54717e-38 5.45175e-16 -1.16084e-21 0 -25.65 2 -3.75199e-39 -4.41391e-32 -0 0.5 -1.5 2.65 2.05088e-37 1.30642e-15 -7.68734e-21 0 -3.8 3.7 0.000637517 -4.74173e-08 -0.00575073 5.68434e-14 -3 2.7 0.00672121 2.02604e-07 -0.00913723 2.84217e-14 -1.9 1.6 -3.02313e-38 -1.04819e-26 6.06578e-21 -2.84217e-14 -8.3 1.9 -6.09316e-15 -2.0271e-10 -0.0089141 -2.84217e-14 -4.5 0 -3.96052e-06 -0.000620173 0.0134138 2.84217e-14 -3.4 -4.44089e-16 -3.57739e-06 -0.000618716 0.0049156 0.25 -2.2 0.4 -2.98128e-38 -7.95139e-16 -2.73965e-21 -2.84217e-14 -8.3 1 2.08198e-14 2.64648e-10 -0.0127705 -2.84217e-14 -4.65 2.22045e-16 -3.0573e-07 0.00518272 -0.001454 -2.84217e-14 -3.3 0 -6.36959e-07 0.0109712 0.000921433 0.5 -2.15 -0.8 -3.09558e-39 1.98785e-16 -8.37814e-23 0 -7.75 -0.2 9.22411e-15 -8.79431e-11 0.00600961 0 -3.8 2.22045e-16 2.99479e-05 0.0195343 0.00272407 0 -3.4 0 -4.97167e-07 0.00739647 0.00328878 0.75 -1.75 -1.85 -3.75199e-39 -4.41391e-32 -0 0 -7.15 -1 -6.60657e-14 6.27072e-10 0.00952375 0 -3 0 4.47939e-08 -0.000587415 -0.00196876 0 -2.35 4.44089e-16 3.693e-08 -0.000352226 -0.00136578 8 0 0 -2.58845e-63 2.1e-31 7.06225e-31 0 -45 -1 -2.58845e-63 -2.1e-31 -7.06225e-31 0 -41 -2 0 0 -0 0 -7.5 12.5 0 4.82536e-09 -0 0 0 4 0 0 -0 -8 0 0 0.00136374 2.35562e-07 -4.75724e-05 0 -45 -1 -0.00285796 1.87508e-07 0.000120461 0 -41 -2 0.00149422 -4.27343e-07 -7.28886e-05 -8.88178e-16 -7.5 12.5 -1.41084e-31 1.76556e-31 -0 0 0 4 -1.71743e-26 1.09886e-22 0.00895167 
-52.3004 92.0892 197.43 -7.66066 5.24265 37.437 0 8 -1.42109e-14 3.02781 -1.9284 -111.414 0 8 0 -7.87866 -4.90715 96.9581 0 8 0 0.0560742 0.068638 24.001 0 8 1.42109e-14 -0.0527953 0.0464906 7.94345 2.84217e-14 17 -1.42109e-14 1.12751 7.20386 -0.813311 0 10.8 0 2.85558 16.8311 -2.1699 5 17 0 -1.47858 0.696454 1.39835 6.45 0 1.42109e-14 3.3834 4.7459 -2.52012 6.45 -2.84217e-14 0 -1.04935 -19.9391 4.98952 2.84217e-14 -32.4 -2 -7.98905 -9.84265 -0.515413 0 -25.65 2 9.45207 -9.61341 -7.10474 -0.5 -1.5 2.65 -2.98999 -15.6717 -0.0225936 0 -3.8 3.7 -0.0111399 22.1327 0.013268 0 -3 2.7 -0.000756289 21.1261 -0.00362522 0 -1.9 1.6 -1.59028e-15 -2.38542e-15 -3.18055e-15 0 -8.3 1.9 -5.99279 0.514122 0.0388708 0 -4.5 0 -5.79428 -0.0121089 -0.0059429 2.84217e-14 -3.4 0 -5.36697 -0.000223592 -0.0184648 -0.25 -2.2 0.4 -1.59028e-15 -2.78299e-15 -3.18055e-15 -2.84217e-14 -8.3 1 -13.408 -0.0047698 0.319172 0 -4.65 0 -2.97143 0.00137903 -0.0109715 0 -3.3 -1.42109e-14 -2.85447 0.00794454 0.00518345 -0.5 -2.15 -0.8 -1.59028e-15 -2.38542e-15 -3.18055e-15 0 -7.75 -0.2 -26.5533 -0.792972 0.708727 2.84217e-14 -3.8 -2.84217e-14 -11.9086 0.0199077 -0.00478482 0 -3.4 -1.42109e-14 -10.2592 0.00350235 -0.00793736 -0.75 -1.75 -1.85 -1.59028e-15 -2.38542e-15 -3.18055e-15 0 -7.15 -1 -35.3526 -1.47965 0.816483 0 -3 0 -0 -6.36111e-15 -0 -2.84217e-14 -2.35 0 6.36111e-15 -3.18055e-15 9.54166e-15 -5 17 0 0.662689 -0.190176 -3.13882 -6.45 0 0 1.30063 6.26646 1.43652 -6.45 0 -1.42109e-14 -12.8482 -24.6641 -5.56373 2.84217e-14 -32.4 -2 9.3839 -10.4909 5.54191 -2.84217e-14 -25.65 2 0.401947 6.84773 13.5913 0.5 -1.5 2.65 -2.35433 -23.1487 -3.48572 0 -3.8 3.7 0.0210146 34.8833 -0.00701036 -2.84217e-14 -3 2.7 0.00956945 17.3132 -0.00957086 2.84217e-14 -1.9 1.6 -3.97569e-16 8.94531e-16 -0 -2.84217e-14 -8.3 1.9 0.199855 -0.613024 -0.00891461 0 -4.5 0 -3.96052e-06 -0.000620173 0.0134138 0 -3.4 -7.10543e-15 -3.57739e-06 -0.000618716 0.0049156 0.25 -2.2 0.4 -3.97569e-16 0 -0 2.84217e-14 -8.3 1 0.219831 -0.467174 -0.0127709 0 -4.65 0 5.30843 0.00518272 -0.001454 0 -3.3 1.42109e-14 4.94729 0.0109712 0.000921433 0.5 -2.15 -0.8 -3.97569e-16 8.94531e-16 -0 2.84217e-14 -7.75 -0.2 0.216059 -0.266116 0.00600968 0 -3.8 -7.10543e-15 9.60178 0.0195343 0.00272407 0 -3.4 1.42109e-14 8.49174 0.00739647 0.00328878 0.75 -1.75 -1.85 -3.97569e-16 8.94531e-16 -0 2.84217e-14 -7.15 -1 0.186398 -0.16277 0.00952379 0 -3 0 4.09012 -0.000587415 -0.00196876 0 -2.35 7.10543e-15 3.872 -0.000352226 -0.00136578 8 0 0 16.4282 -13.5907 22.6296 2.84217e-14 -45 -1 -0.062306 14.2726 0.374687 0 -41 -2 -10.2932 -4.19207 -16.5048 2.84217e-14 -7.5 12.5 -9.93923e-17 4.82536e-09 -6.36111e-15 0 2.22045e-16 4 2.98775 1.06456 0.0278694 -8 0 -2.84217e-14 -3.20553 -18.147 5.43416 2.84217e-14 -45 -1 0.0171098 9.05171 0.402427 0 -41 -2 6.8957 -0.487616 -3.76798 0 -7.5 12.5 -6.21202e-18 -1.2424e-17 -0 0 2.77556e-17 4 -2.56218 -2.09783 0.00895768 
-52.6769 92.0129 197.047 -7.90516 5.72057 37.4923 0 8 2.84217e-14 2.82635 -1.51122 -111.486 0 8 -1.42109e-14 -8.60947 -5.29133 96.8909 0 8 -1.42109e-14 0.0578509 0.0913178 24.0681 0 8 -1.42109e-14 -0.062626 0.075888 7.90153 2.84217e-14 17 1.42109e-14 1.0782 6.9974 -0.840332 0 10.8 0 2.73507 16.3458 -2.21482 5 17 2.84217e-14 -1.50375 0.68006 1.64008 6.45 0 0 3.44374 4.61647 -2.57071 6.45 0 0 -1.51459 -21.1984 4.2936 0 -32.4 -2 -8.0526 -10.4971 -0.130712 0 -25.65 2 10.1404 -9.41038 -7.51731 -0.5 -1.5 2.65 -3.02582 -15.6668 0.0303169 0 -3.8 3.7 -0.0108942 22.2407 0.0125579 0 -3 2.7 -0.000751551 21.1959 -0.00362693 0 -1.9 1.6 1.19271e-15 -1.98785e-15 -3.18055e-15 -2.84217e-14 -8.3 1.9 -5.83113 0.339011 0.0274531 0 -4.5 1.42109e-14 -5.83612 -0.0121089 -0.0059429 0 -3.4 0 -5.40293 -0.000223592 -0.0184648 -0.25 -2.2 0.4 1.19271e-15 -2.38542e-15 -3.18055e-15 -2.84217e-14 -8.3 1 -13.2949 -0.113801 0.305968 2.84217e-14 -4.65 0 -2.95189 0.00137903 -0.0109715 0 -3.3 0 -2.83639 0.00794454 0.00518345 -0.5 -2.15 -0.8 1.19271e-15 -1.98785e-15 -3.18055e-15 2.84217e-14 -7.75 -0.2 -26.5177 -0.818497 0.704741 2.84217e-14 -3.8 0 -11.8983 0.0199077 -0.00478482 0 -3.4 0 -10.2515 0.00350235 -0.00793736 -0.75 -1.75 -1.85 1.19271e-15 -1.98785e-15 -3.18055e-15 0 -7.15 -1 -35.3488 -1.46225 0.824758 0 -3 -2.84217e-14 -3.18055e-15 -3.18055e-15 6.36111e-15 0 -2.35 0 -3.18055e-15 3.18055e-15 6.36111e-15 -5 17 1.42109e-14 0.601809 -0.144625 -3.35578 -6.45 2.84217e-14 0 1.26953 6.21687 1.48216 -6.45 2.84217e-14 0 -13.144 -26.1154 -5.34151 0 -32.4 -2 9.38312 -10.8775 5.36992 0 -25.65 2 0.0496771 6.80467 13.8807 0.5 -1.5 2.65 -2.3479 -23.1103 -3.42603 0 -3.8 3.7 0.0225398 34.7636 -0.00700018 0 -3 2.7 0.00957179 17.3266 -0.00957156 0 -1.9 1.6 -3.97569e-16 -1.39149e-15 3.18055e-15 2.84217e-14 -8.3 1.9 0.238225 -0.559376 -0.00891453 0 -4.5 0 -3.96052e-06 -0.000620173 0.0134138 -2.84217e-14 -3.4 7.10543e-15 -3.57739e-06 -0.000618716 0.0049156 0.25 -2.2 0.4 -3.97569e-16 -2.28602e-15 3.18055e-15 -2.84217e-14 -8.3 1 0.261277 -0.433698 -0.0127708 0 -4.65 0 5.40016 0.00518272 -0.001454 0 -3.3 -7.10543e-15 5.0267 0.0109712 0.000921433 0.5 -2.15 -0.8 -3.97569e-16 -1.39149e-15 3.18055e-15 0 -7.75 -0.2 0.261518 -0.275888 0.00600968 2.84217e-14 -3.8 0 9.70353 0.0195343 0.00272407 0 -3.4 0 8.57132 0.00739647 0.00328878 0.75 -1.75 -1.85 -3.97569e-16 -1.39149e-15 3.18055e-15 0 -7.15 -1 0.232796 -0.194432 0.00952381 0 -3 -7.10543e-15 4.16407 -0.000587415 -0.00196876 0 -2.35 -7.10543e-15 3.9381 -0.000352226 -0.00136578 8 -1.42109e-14 1.42109e-14 16.6657 -14.7373 23.4784 0 -45 -1 -0.061807 14.996 0.365297 -2.84217e-14 -41 -2 -10.086 -4.01491 -17.1029 -2.84217e-14 -7.5 12.5 4.96962e-17 4.82536e-09 -3.18055e-15 0 0 4 2.86021 0.937277 0.0320599 -8 -1.42109e-14 2.84217e-14 -3.3039 -19.4905 4.85862 0 -45 -1 0.0180064 9.97549 0.419135 0 -41 -2 6.79753 -0.69913 -3.27113 2.84217e-14 -7.5 12.5 2.48481e-17 0 -3.18055e-15 0 0 4 -2.40998 -1.84463 0.00895631 
